<svg width="39" height="35" viewBox="0 0 39 35" fill="none" xmlns="http://www.w3.org/2000/svg">
<path fill-rule="evenodd" clip-rule="evenodd" d="M2.4375 17.5C2.4375 17.2182 2.5659 16.948 2.79446 16.7487C3.02302 16.5494 3.33302 16.4375 3.65625 16.4375H32.4017L24.7309 9.75225C24.502 9.55274 24.3735 9.28215 24.3735 9C24.3735 8.71785 24.502 8.44726 24.7309 8.24775C24.9597 8.04824 25.2701 7.93616 25.5938 7.93616C25.9174 7.93616 26.2278 8.04824 26.4566 8.24775L36.2066 16.7477C36.3201 16.8464 36.4102 16.9637 36.4716 17.0928C36.5331 17.2219 36.5647 17.3602 36.5647 17.5C36.5647 17.6398 36.5331 17.7781 36.4716 17.9072C36.4102 18.0363 36.3201 18.1536 36.2066 18.2522L26.4566 26.7522C26.2278 26.9518 25.9174 27.0638 25.5938 27.0638C25.2701 27.0638 24.9597 26.9518 24.7309 26.7522C24.502 26.5527 24.3735 26.2821 24.3735 26C24.3735 25.7179 24.502 25.4473 24.7309 25.2477L32.4017 18.5625H3.65625C3.33302 18.5625 3.02302 18.4506 2.79446 18.2513C2.5659 18.052 2.4375 17.7818 2.4375 17.5Z" fill="#1E1E1E"/>
</svg>
