<svg width="43" height="35" viewBox="0 0 43 35" fill="none" xmlns="http://www.w3.org/2000/svg">
<path fill-rule="evenodd" clip-rule="evenodd" d="M3.125 17.4999C3.125 17.2181 3.26328 16.9478 3.50942 16.7486C3.75556 16.5493 4.0894 16.4374 4.4375 16.4374H35.3941L27.1332 9.75213C26.8868 9.55262 26.7483 9.28203 26.7483 8.99988C26.7483 8.71773 26.8868 8.44714 27.1332 8.24763C27.3797 8.04812 27.714 7.93604 28.0625 7.93604C28.411 7.93604 28.7453 8.04812 28.9918 8.24763L39.4918 16.7476C39.614 16.8463 39.711 16.9636 39.7771 17.0927C39.8433 17.2217 39.8773 17.3601 39.8773 17.4999C39.8773 17.6396 39.8433 17.778 39.7771 17.9071C39.711 18.0362 39.614 18.1534 39.4918 18.2521L28.9918 26.7521C28.7453 26.9516 28.411 27.0637 28.0625 27.0637C27.714 27.0637 27.3797 26.9516 27.1332 26.7521C26.8868 26.5526 26.7483 26.282 26.7483 25.9999C26.7483 25.7177 26.8868 25.4471 27.1332 25.2476L35.3941 18.5624H4.4375C4.0894 18.5624 3.75556 18.4504 3.50942 18.2512C3.26328 18.0519 3.125 17.7817 3.125 17.4999Z" fill="#1E1E1E"/>
</svg>
