<svg width="50" height="50" viewBox="0 0 50 50" fill="none" xmlns="http://www.w3.org/2000/svg">
<g clip-path="url(#clip0_4_34)">
<path d="M51.25 32.8125C51.25 32.3981 51.0525 32.0007 50.7008 31.7076C50.3492 31.4146 49.8723 31.25 49.375 31.25H38.125C37.6277 31.25 37.1508 31.4146 36.7992 31.7076C36.4475 32.0007 36.25 32.3981 36.25 32.8125C36.25 33.2269 36.4475 33.6243 36.7992 33.9174C37.1508 34.2104 37.6277 34.375 38.125 34.375H49.375C49.8723 34.375 50.3492 34.2104 50.7008 33.9174C51.0525 33.6243 51.25 33.2269 51.25 32.8125ZM51.25 23.4375C51.25 23.0231 51.0525 22.6257 50.7008 22.3326C50.3492 22.0396 49.8723 21.875 49.375 21.875H23.125C22.6277 21.875 22.1508 22.0396 21.7992 22.3326C21.4475 22.6257 21.25 23.0231 21.25 23.4375C21.25 23.8519 21.4475 24.2493 21.7992 24.5424C22.1508 24.8354 22.6277 25 23.125 25H49.375C49.8723 25 50.3492 24.8354 50.7008 24.5424C51.0525 24.2493 51.25 23.8519 51.25 23.4375ZM51.25 14.0625C51.25 13.6481 51.0525 13.2507 50.7008 12.9576C50.3492 12.6646 49.8723 12.5 49.375 12.5H8.125C7.62772 12.5 7.15081 12.6646 6.79918 12.9576C6.44754 13.2507 6.25 13.6481 6.25 14.0625C6.25 14.4769 6.44754 14.8743 6.79918 15.1674C7.15081 15.4604 7.62772 15.625 8.125 15.625H49.375C49.8723 15.625 50.3492 15.4604 50.7008 15.1674C51.0525 14.8743 51.25 14.4769 51.25 14.0625Z" fill="#1E1E1E"/>
</g>
<defs>
<clipPath id="clip0_4_34">
<rect width="50" height="50" fill="white"/>
</clipPath>
</defs>
</svg>
