<svg width="146" height="145" viewBox="0 0 146 145" fill="none" xmlns="http://www.w3.org/2000/svg">
<circle cx="73" cy="72.5" r="72.5" fill="#F6C000"/>
<path d="M73.7023 46.2047C73.2515 46.024 72.7484 46.024 72.2976 46.2047L49.7622 55.2181L58.8398 58.8469L82.0776 49.554L73.7023 46.2047ZM87.1601 51.5893L63.9224 60.8821L73 64.5109L96.2377 55.2181L87.1601 51.5893ZM99.4323 58.0086L74.888 67.8263V97.7401L99.4323 87.9224V58.0086ZM71.1119 97.7439V67.8225L46.5677 58.0086V87.9262L71.1119 97.7439ZM70.8967 42.6967C72.2469 42.1568 73.753 42.1568 75.1032 42.6967L102.023 53.466C102.373 53.6063 102.673 53.8481 102.884 54.1604C103.095 54.4726 103.208 54.841 103.208 55.2181V87.9262C103.208 88.6807 102.981 89.4178 102.558 90.0424C102.135 90.667 101.534 91.1504 100.833 91.4303L73.7023 102.283C73.2515 102.463 72.7484 102.463 72.2976 102.283L45.1705 91.4303C44.4691 91.151 43.8676 90.6678 43.4435 90.0432C43.0195 89.4185 42.7924 88.6811 42.7916 87.9262V55.2181C42.7917 54.841 42.9047 54.4726 43.116 54.1604C43.3273 53.8481 43.6273 53.6063 43.9773 53.466L70.8967 42.6967Z" fill="#1E1E1E"/>
</svg>
