<svg width="145" height="145" viewBox="0 0 145 145" fill="none" xmlns="http://www.w3.org/2000/svg">
<circle cx="72.5" cy="72.5" r="72.5" fill="#F6C000"/>
<path d="M93.0431 77.1478H69.8725L70.5825 76.4652L76.6424 70.6386C79.09 71.8238 81.7868 72.4556 84.5271 72.4859C87.2853 72.4929 89.9919 71.7672 92.3482 70.3888C99.5139 66.2178 103.353 56.5629 102.619 44.561C102.585 43.9925 102.334 43.456 101.916 43.0534C101.497 42.6507 100.939 42.4099 100.348 42.3767C87.8652 41.6738 77.8236 45.3627 73.4856 52.2524C70.658 56.74 70.5855 62.16 73.2228 67.3564L68.8756 71.5361L65.1871 67.9896C66.9996 64.141 66.8697 60.1471 64.7672 56.8127C61.4834 51.5873 53.9553 48.8017 44.6267 49.3275C44.0364 49.3613 43.4796 49.602 43.0615 50.004C42.6434 50.4059 42.3931 50.9413 42.3579 51.5088C41.8081 60.4754 44.7082 67.7136 50.1459 70.8739C51.9651 71.9419 54.0562 72.5049 56.1877 72.5004C58.1215 72.482 60.0288 72.0671 61.7825 71.2834L65.4559 74.8241L63.0392 77.1478H49.5417C48.9007 77.1478 48.286 77.3926 47.8328 77.8284C47.3796 78.2642 47.125 78.8552 47.125 79.4715C47.125 80.0878 47.3796 80.6788 47.8328 81.1146C48.286 81.5504 48.9007 81.7952 49.5417 81.7952H52.4388L56.4294 99.0689C56.6633 100.103 57.2596 101.029 58.1186 101.692C58.9775 102.354 60.047 102.713 61.1481 102.708H81.4397C82.5408 102.713 83.6103 102.354 84.4692 101.692C85.3281 101.029 85.9244 100.103 86.1584 99.0689L90.149 81.7952H93.0431C93.684 81.7952 94.2987 81.5504 94.7519 81.1146C95.2052 80.6788 95.4598 80.0878 95.4598 79.4715C95.4598 78.8552 95.2052 78.2642 94.7519 77.8284C94.2987 77.3926 93.684 77.1478 93.0431 77.1478ZM77.6363 54.6603C80.7962 49.647 88.2821 46.8179 97.8765 46.9428C98.0004 56.1824 95.0641 63.3771 89.8499 66.4037C86.3728 68.4369 82.1768 68.3033 77.9837 66.0609C75.6486 62.0439 75.5217 58.0035 77.6363 54.6603ZM60.4503 66.7232C57.671 68.1551 54.919 68.222 52.6472 66.8975C49.1731 64.8729 47.1703 60.1007 47.125 53.9109C53.5626 53.9545 58.529 55.8803 60.6315 59.2206C62.0091 61.4048 61.9275 64.0509 60.4503 66.7232ZM81.4397 98.061H61.1481L57.3961 81.7952H85.1886L81.4397 98.061Z" fill="#1E1E1E"/>
</svg>
