<svg width="146" height="145" viewBox="0 0 146 145" fill="none" xmlns="http://www.w3.org/2000/svg">
<circle cx="73" cy="72.5" r="72.5" fill="#F6C000"/>
<g clip-path="url(#clip0_5_94)">
<path d="M56.589 47.3062C56.3661 47.0195 56.0847 46.7834 55.7636 46.6138C55.4424 46.4441 55.0888 46.3448 54.7263 46.3223C54.3638 46.2998 54.0007 46.3547 53.661 46.4833C53.3214 46.6119 53.013 46.8114 52.7563 47.0683L48.8519 50.9765C47.028 52.8041 46.3559 55.3907 47.1527 57.6601C50.4595 67.0534 55.8387 75.5816 62.8912 82.6122C69.9219 89.6646 78.4501 95.0438 87.8433 98.3508C90.1127 99.1475 92.6993 98.4754 94.5269 96.6515L98.4313 92.7471C98.6883 92.4904 98.8877 92.182 99.0163 91.8424C99.145 91.5027 99.1999 91.1396 99.1774 90.7771C99.1549 90.4146 99.0555 90.061 98.8858 89.7399C98.7162 89.4187 98.4802 89.1373 98.1934 88.9144L89.4821 82.1402C89.1757 81.9026 88.8194 81.7377 88.44 81.6579C88.0606 81.5781 87.6681 81.5855 87.292 81.6795L79.0225 83.745C77.9186 84.0209 76.7622 84.0063 75.6657 83.7025C74.5692 83.3988 73.5701 82.8163 72.7655 82.0118L63.4916 72.7341C62.6864 71.9299 62.1032 70.931 61.7988 69.8345C61.4944 68.738 61.4792 67.5813 61.7546 66.4772L63.8239 58.2077C63.9179 57.8315 63.9253 57.439 63.8455 57.0596C63.7657 56.6802 63.6008 56.3239 63.3632 56.0176L56.589 47.3062ZM49.9054 44.2212C50.5662 43.5602 51.36 43.0473 52.2342 42.7167C53.1084 42.386 54.043 42.2451 54.9758 42.3033C55.9086 42.3615 56.8184 42.6175 57.6447 43.0543C58.471 43.4911 59.1949 44.0987 59.7684 44.8367L66.5426 53.5442C67.7849 55.1415 68.223 57.2221 67.7321 59.1857L65.6666 67.4552C65.5598 67.8835 65.5656 68.3321 65.6833 68.7576C65.8011 69.183 66.0269 69.5708 66.3387 69.8832L75.6165 79.1609C75.9293 79.4734 76.3176 79.6995 76.7438 79.8173C77.17 79.9351 77.6194 79.9405 78.0482 79.833L86.314 77.7676C87.283 77.5253 88.2944 77.5065 89.2717 77.7125C90.249 77.9186 91.1667 78.3441 91.9554 78.957L100.663 85.7312C103.793 88.1668 104.08 92.7924 101.278 95.5905L97.374 99.4949C94.5797 102.289 90.4034 103.516 86.5103 102.146C76.5461 98.6397 67.499 92.9353 60.0403 85.4556C52.561 77.9979 46.8566 68.9522 43.3502 58.9893C41.9833 55.1 43.2105 50.9199 46.0047 48.1256L49.9092 44.2212H49.9054ZM84.3278 44.1797C84.3278 43.6789 84.5267 43.1987 84.8808 42.8446C85.2348 42.4906 85.7151 42.2916 86.2158 42.2916H101.32C101.821 42.2916 102.301 42.4906 102.655 42.8446C103.009 43.1987 103.208 43.6789 103.208 44.1797V59.2838C103.208 59.7846 103.009 60.2648 102.655 60.6189C102.301 60.9729 101.821 61.1719 101.32 61.1719C100.819 61.1719 100.339 60.9729 99.9849 60.6189C99.6309 60.2648 99.432 59.7846 99.432 59.2838V48.7373L83.7765 64.3966C83.422 64.7511 82.9411 64.9503 82.4398 64.9503C81.9384 64.9503 81.4576 64.7511 81.103 64.3966C80.7485 64.0421 80.5494 63.5612 80.5494 63.0599C80.5494 62.5585 80.7485 62.0777 81.103 61.7232L96.7623 46.0677H86.2158C85.7151 46.0677 85.2348 45.8688 84.8808 45.5147C84.5267 45.1606 84.3278 44.6804 84.3278 44.1797Z" fill="#1E1E1E"/>
</g>
<defs>
<clipPath id="clip0_5_94">
<rect width="60.4167" height="60.4167" fill="white" transform="translate(42.7917 42.2917)"/>
</clipPath>
</defs>
</svg>
