<svg width="35" height="34" viewBox="0 0 35 34" fill="none" xmlns="http://www.w3.org/2000/svg">
<g clip-path="url(#clip0_4_20)">
<path d="M25.6858 21.9808C27.8039 19.173 28.7526 15.6918 28.342 12.2337C27.9315 8.77563 26.192 5.59563 23.4715 3.32994C20.751 1.06424 17.2502 -0.120056 13.6695 0.0139743C10.0887 0.148005 6.6921 1.59048 4.15916 4.05282C1.62621 6.51515 0.143743 9.81575 0.00833324 13.2943C-0.127077 16.7728 1.09456 20.1728 3.42884 22.8139C5.76311 25.455 9.03789 27.1426 12.598 27.5389C16.1581 27.9353 19.741 27.0112 22.6298 24.9515H22.6276C22.6933 25.0365 22.7633 25.1173 22.842 25.1959L31.2639 33.3772C31.674 33.7759 32.2305 34 32.8108 34.0002C33.391 34.0004 33.9476 33.7767 34.3581 33.3782C34.7686 32.9798 34.9993 32.4392 34.9995 31.8755C34.9997 31.3118 34.7694 30.7711 34.3592 30.3724L25.9373 22.1912C25.8591 22.1143 25.775 22.0453 25.6858 21.9808ZM26.2501 13.8123C26.2501 15.3471 25.9389 16.8669 25.3343 18.2849C24.7297 19.7029 23.8435 20.9913 22.7263 22.0766C21.6091 23.1619 20.2827 24.0228 18.823 24.6101C17.3633 25.1975 15.7988 25.4998 14.2189 25.4998C12.6389 25.4998 11.0744 25.1975 9.61472 24.6101C8.15502 24.0228 6.82871 23.1619 5.7115 22.0766C4.5943 20.9913 3.70808 19.7029 3.10346 18.2849C2.49883 16.8669 2.18763 15.3471 2.18763 13.8123C2.18763 10.7126 3.45521 7.73981 5.7115 5.54798C7.9678 3.35615 11.028 2.12479 14.2189 2.12479C17.4098 2.12479 20.47 3.35615 22.7263 5.54798C24.9826 7.73981 26.2501 10.7126 26.2501 13.8123Z" fill="#1E1E1E"/>
</g>
<defs>
<clipPath id="clip0_4_20">
<rect width="35" height="34" fill="white"/>
</clipPath>
</defs>
</svg>
