<svg width="321" height="148" viewBox="0 0 321 148" fill="none" xmlns="http://www.w3.org/2000/svg">
<path d="M2.95377 63.1437C5.8326 38.4001 5.32763 7.16307 35.5952 2.33828C49.9777 0.0456529 67.9582 14.8172 72.1948 27.4021C75.709 37.8412 83.8078 49.4016 75.889 60.3858C69.669 69.0134 58.9409 72.9405 49.2693 68.1482C21.8037 54.5391 49.6997 24.0861 68.0205 19.9031C93.0272 14.1937 143.429 59.6956 130.731 86.7646C119.845 109.973 98.6727 91.1658 104.924 71.6639C113.719 44.2303 129.074 36.6704 157.563 49.1965C179.808 58.9769 187.231 90.3672 181.138 111.317C179.873 115.668 179.428 142.39 176.169 141.177C144.013 129.204 171.377 78.4005 195.963 72.988C224.211 66.7692 252.854 60.8002 278.516 73.6941C292.316 80.6278 325.648 112.552 316.604 99.9987C305.286 84.2895 291.45 61.9797 291.569 41.2785C291.604 35.1187 291.246 15.4601 292.419 34.1751C293.627 53.4493 294.246 70.4689 298.774 88.1309C299.782 92.0614 306.771 95.1703 309.711 97.5783C312.201 99.6179 299.928 101.023 298.574 101.465C286.884 105.281 278.403 114.13 270.993 123.739C264.379 132.316 258.244 145.625 250.469 145.31" stroke="black" stroke-width="4" stroke-linecap="round" stroke-linejoin="round"/>
</svg>
