<svg width="112" height="86" viewBox="0 0 112 86" fill="none" xmlns="http://www.w3.org/2000/svg">
<path d="M100.44 85.603C103.4 85.603 106.239 84.6009 108.331 82.8172C110.424 81.0334 111.6 78.6142 111.6 76.0916V52.8646C111.6 50.342 110.424 47.9228 108.331 46.139C106.239 44.3553 103.4 43.3532 100.44 43.3532H84.9504C84.9504 40.0147 85.1847 36.6666 85.6423 33.3281C86.3342 29.7899 87.4948 26.6416 89.1018 23.8928C90.72 21.1344 92.7957 18.9753 95.3402 17.3964C97.8734 15.6273 101.099 14.7427 105.027 14.7427V0C98.5654 0 92.9185 1.17942 88.064 3.53826C83.2517 5.87318 79.1143 9.09724 75.9556 12.9736C72.7854 17.2472 70.4487 21.9305 69.0365 26.8413C67.6135 32.2606 66.9171 37.8 66.9608 43.3532V76.0916C66.9608 78.6142 68.1365 81.0334 70.2294 82.8172C72.3223 84.6009 75.1608 85.603 78.1206 85.603H100.44ZM33.4814 85.603C36.4411 85.603 39.2797 84.6009 41.3725 82.8172C43.4654 81.0334 44.6412 78.6142 44.6412 76.0916V52.8646C44.6412 50.342 43.4654 47.9228 41.3725 46.139C39.2797 44.3553 36.4411 43.3532 33.4814 43.3532H17.9915C17.9915 40.0147 18.2259 36.6666 18.6834 33.3281C19.3754 29.7899 20.536 26.6416 22.143 23.8928C23.7612 21.1344 25.8369 18.9753 28.3813 17.3964C30.9146 15.6273 34.1398 14.7427 38.068 14.7427V0C31.6065 0 25.9596 1.17942 21.1051 3.53826C16.2929 5.87318 12.1554 9.09724 8.99674 12.9736C5.82652 17.2472 3.48987 21.9305 2.07766 26.8413C0.654627 32.2606 -0.0417441 37.8 0.00193375 43.3532V76.0916C0.00193375 78.6142 1.1777 81.0334 3.27056 82.8172C5.36343 84.6009 8.20198 85.603 11.1617 85.603H33.4814Z" fill="#1E1E1E"/>
</svg>
