<svg width="94" height="96" viewBox="0 0 94 96" fill="none" xmlns="http://www.w3.org/2000/svg">
<path d="M47 0C21.0873 0 0 21.536 0 48C0 74.464 21.0873 96 47 96C72.9127 96 94 74.464 94 48C94 21.536 72.9127 0 47 0ZM47 8C68.6788 8 86.1667 25.86 86.1667 48C86.1762 57.5759 82.814 66.836 76.6936 74.0904C70.5732 81.3448 62.1027 86.1099 52.828 87.516V59.664H63.9827L65.7334 48.092H52.828V41.772C52.828 36.972 54.3751 32.704 58.7735 32.704H65.8431V22.608C64.6015 22.436 61.9734 22.064 57.0071 22.064C46.6358 22.064 40.5571 27.656 40.5571 40.4V48.092H29.8959V59.664H40.5571V87.416C31.4107 85.8786 23.0975 81.07 17.1029 73.8494C11.1082 66.6288 7.82271 57.4667 7.83333 48C7.83333 25.86 25.3213 8 47 8Z" fill="white"/>
</svg>
