<svg width="137" height="262" viewBox="0 0 137 262" fill="none" xmlns="http://www.w3.org/2000/svg">
<path d="M3.4747 2.49547C51.4535 13.8198 42.6701 10.8379 80.1615 40.6572C88.7242 47.4677 101.764 56.328 104.25 65.63C107.92 79.357 77.976 111.863 60.9023 93.7234C49.8681 82.0004 53.1176 66.7454 71.0658 66.4675C100.5 66.0118 122.516 91.33 130.409 110.761C139.1 132.153 129.417 151.336 105.205 159.022C94.1441 162.533 77.0796 156.09 87.3321 145.724C108.42 124.403 128.916 160.397 124.779 176.732C117.329 206.156 68.4886 236.224 25.6198 220.329C12.2166 215.359 16.9251 211.881 22.815 209.837C28.7914 207.762 44.0631 198.746 39.8759 202.524C32.5558 209.128 23.7193 210.49 13.7765 213.127C0.952164 216.529 26.7547 235.794 34.1718 242.276C38.0654 245.679 43.5959 252.6 44.4297 256.937C46.0763 265.501 31.7989 240.932 29.5109 232.373" stroke="black" stroke-width="5" stroke-linecap="round" stroke-linejoin="round"/>
</svg>
